<svg width="96" height="32" viewBox="0 0 96 32" fill="none" xmlns="http://www.w3.org/2000/svg">
<path d="M31 6.84375C29.8747 7.33273 28.684 7.65487 27.4656 7.80001C28.746 7.05024 29.7089 5.85911 30.1737 4.45C28.9632 5.15787 27.641 5.65455 26.2638 5.91875C25.6838 5.31096 24.9863 4.82744 24.2137 4.49759C23.4411 4.16774 22.6095 3.99845 21.7694 4C18.3681 4 15.6156 6.7125 15.6156 10.0563C15.6132 10.5214 15.6665 10.9851 15.7744 11.4375C13.3354 11.3232 10.9472 10.701 8.76249 9.61079C6.57777 8.52059 4.64468 6.98635 3.08687 5.10625C2.54036 6.02758 2.25133 7.07878 2.25 8.15001C2.25 10.25 3.34563 12.1063 5 13.1938C4.01983 13.1705 3.05974 12.9111 2.20125 12.4375V12.5125C2.20125 15.45 4.32625 17.8938 7.13875 18.45C6.60986 18.591 6.06486 18.6624 5.5175 18.6625C5.12911 18.6632 4.74161 18.6255 4.36062 18.55C5.1425 20.9563 7.41813 22.7063 10.1138 22.7563C7.92336 24.4443 5.23414 25.3567 2.46875 25.35C1.97789 25.3493 1.48748 25.3201 1 25.2625C3.81324 27.0589 7.0834 28.0091 10.4213 28C21.7563 28 27.9487 18.7688 27.9487 10.7625C27.9487 10.5 27.9419 10.2375 27.9294 9.98126C29.1313 9.12629 30.1711 8.06383 31 6.84375V6.84375Z" stroke="#FFFFFF" stroke-width="2" stroke-linejoin="round"/>
<path d="M90 5H70C68.3431 5 67 6.34315 67 8V24C67 25.6569 68.3431 27 70 27H90C91.6569 27 93 25.6569 93 24V8C93 6.34315 91.6569 5 90 5Z" stroke="#FFFFFF" stroke-width="2" stroke-linejoin="round"/>
<path d="M85 13C86.1046 13 87 12.1046 87 11C87 9.89543 86.1046 9 85 9C83.8954 9 83 9.89543 83 11C83 12.1046 83.8954 13 85 13Z" stroke="#FFFFFF" stroke-width="2" stroke-miterlimit="10"/>
<path d="M83 20.9868L77.3337 15.3312C76.9732 14.9707 76.4886 14.7616 75.9789 14.7465C75.4693 14.7314 74.9731 14.9115 74.5919 15.25L67 22M78 27L85.7087 19.2912C86.0613 18.938 86.5332 18.7293 87.0317 18.7062C87.5302 18.683 88.0194 18.8471 88.4031 19.1662L93 23" stroke="#FFFFFF" stroke-width="2" stroke-linecap="round" stroke-linejoin="round"/>
<path d="M48.75 7L57.75 16L48.75 25M56.5 16H47.375H38.25" stroke="#FFFFFF" stroke-width="2" stroke-linecap="round" stroke-linejoin="round"/>
</svg>
