<svg width="24" height="24" viewBox="0 0 24 24" fill="none" xmlns="http://www.w3.org/2000/svg">
<g id="verified">
<g id="Group">
<path id="Vector" d="M22.5 12.5C22.5 10.92 21.625 9.55 20.352 8.9C20.506 8.465 20.59 7.995 20.59 7.5C20.59 5.29 18.88 3.502 16.772 3.502C16.302 3.502 15.852 3.586 15.436 3.752C14.818 2.415 13.51 1.5 12 1.5C10.49 1.5 9.18399 2.417 8.56299 3.75C8.14799 3.585 7.69699 3.5 7.22699 3.5C5.11699 3.5 3.40899 5.29 3.40899 7.5C3.40899 7.994 3.49199 8.464 3.64599 8.9C2.37399 9.55 1.49899 10.918 1.49899 12.5C1.49899 13.995 2.28099 15.298 3.44099 15.986C3.42099 16.156 3.40899 16.326 3.40899 16.5C3.40899 18.71 5.11699 20.5 7.22699 20.5C7.69699 20.5 8.14699 20.414 8.56199 20.25C9.18199 21.584 10.488 22.5 11.999 22.5C13.511 22.5 14.817 21.584 15.436 20.25C15.851 20.413 16.301 20.498 16.772 20.498C18.882 20.498 20.59 18.708 20.59 16.498C20.59 16.324 20.578 16.154 20.557 15.985C21.715 15.298 22.5 13.995 22.5 12.501V12.5ZM15.884 9.166L11.55 15.666C11.405 15.883 11.168 16 10.925 16C10.782 16 10.637 15.96 10.509 15.874L10.394 15.78L7.97899 13.365C7.68599 13.072 7.68599 12.597 7.97899 12.305C8.27199 12.013 8.74699 12.011 9.03899 12.305L10.809 14.072L14.634 8.332C14.864 7.987 15.33 7.896 15.674 8.125C16.02 8.355 16.114 8.821 15.884 9.165V9.166Z" fill="#1DA1F2"/>
</g>
</g>
</svg>
